<svg width="1237" height="857" viewBox="0 0 1237 857" fill="none" xmlns="http://www.w3.org/2000/svg">
<path d="M340.97 0.333214H369.981L420.422 123.495H422.279L472.719 0.333214H501.731V158.773H478.986V44.1207H477.516L430.789 158.541H411.912L365.185 44.0433H363.715V158.773H340.97V0.333214ZM585.844 161.171C574.136 161.171 564.053 158.67 555.595 153.667C547.188 148.612 540.689 141.521 536.099 132.392C531.56 123.211 529.291 112.458 529.291 100.132C529.291 87.9597 531.56 77.2321 536.099 67.9485C540.689 58.6649 547.085 51.4186 555.285 46.2095C563.537 41.0004 573.182 38.3958 584.219 38.3958C590.924 38.3958 597.422 39.5047 603.714 41.7224C610.007 43.9402 615.654 47.4215 620.657 52.1664C625.66 56.9114 629.605 63.0746 632.493 70.6562C635.382 78.1862 636.826 87.3408 636.826 98.1201V106.321H542.365V88.9913H614.158C614.158 82.9054 612.921 77.5157 610.445 72.8224C607.969 68.0774 604.488 64.3382 600.001 61.6047C595.565 58.8712 590.356 57.5045 584.374 57.5045C577.875 57.5045 572.202 59.1033 567.354 62.301C562.557 65.4471 558.844 69.5731 556.213 74.6791C553.635 79.7335 552.345 85.2262 552.345 91.1574V104.696C552.345 112.639 553.738 119.395 556.523 124.965C559.36 130.535 563.305 134.79 568.359 137.73C573.414 140.618 579.319 142.062 586.076 142.062C590.46 142.062 594.457 141.443 598.067 140.206C601.677 138.916 604.797 137.008 607.428 134.481C610.058 131.954 612.07 128.833 613.462 125.12L635.356 129.065C633.602 135.512 630.456 141.16 625.918 146.008C621.431 150.804 615.783 154.544 608.975 157.225C602.219 159.856 594.508 161.171 585.844 161.171ZM713.705 161.171C701.998 161.171 691.915 158.67 683.456 153.667C675.05 148.612 668.551 141.521 663.961 132.392C659.422 123.211 657.153 112.458 657.153 100.132C657.153 87.9597 659.422 77.2321 663.961 67.9485C668.551 58.6649 674.946 51.4186 683.147 46.2095C691.399 41.0004 701.044 38.3958 712.081 38.3958C718.785 38.3958 725.284 39.5047 731.576 41.7224C737.868 43.9402 743.516 47.4215 748.519 52.1664C753.521 56.9114 757.467 63.0746 760.355 70.6562C763.243 78.1862 764.688 87.3408 764.688 98.1201V106.321H670.227V88.9913H742.02C742.02 82.9054 740.782 77.5157 738.307 72.8224C735.831 68.0774 732.35 64.3382 727.863 61.6047C723.427 58.8712 718.218 57.5045 712.235 57.5045C705.737 57.5045 700.064 59.1033 695.216 62.301C690.419 65.4471 686.706 69.5731 684.075 74.6791C681.496 79.7335 680.207 85.2262 680.207 91.1574V104.696C680.207 112.639 681.6 119.395 684.385 124.965C687.221 130.535 691.167 134.79 696.221 137.73C701.276 140.618 707.181 142.062 713.937 142.062C718.321 142.062 722.318 141.443 725.929 140.206C729.539 138.916 732.659 137.008 735.29 134.481C737.92 131.954 739.931 128.833 741.324 125.12L763.218 129.065C761.464 135.512 758.318 141.16 753.779 146.008C749.292 150.804 743.645 154.544 736.837 157.225C730.08 159.856 722.37 161.171 713.705 161.171ZM845.822 39.9431V58.5102H780.914V39.9431H845.822ZM798.321 11.4735H821.453V123.882C821.453 128.369 822.123 131.747 823.464 134.017C824.805 136.234 826.533 137.756 828.647 138.581C830.814 139.355 833.16 139.741 835.687 139.741C837.544 139.741 839.169 139.612 840.561 139.355C841.954 139.097 843.037 138.89 843.811 138.736L847.988 157.844C846.647 158.36 844.739 158.876 842.263 159.392C839.788 159.959 836.693 160.268 832.98 160.32C826.894 160.423 821.221 159.34 815.96 157.071C810.699 154.801 806.444 151.294 803.195 146.549C799.946 141.804 798.321 135.847 798.321 128.678V11.4735ZM23.6561 414.218V484.773H0.52453V365.943H22.7277V385.284H24.1976C26.9311 378.992 31.2119 373.937 37.0399 370.121C42.9195 366.304 50.3205 364.396 59.2431 364.396C67.3404 364.396 74.432 366.098 80.5179 369.502C86.6038 372.854 91.3229 377.857 94.6753 384.51C98.0277 391.163 99.7039 399.39 99.7039 409.189V484.773H76.5724V411.974C76.5724 403.361 74.3289 396.63 69.8418 391.782C65.3547 386.883 59.1915 384.433 51.352 384.433C45.9882 384.433 41.2175 385.593 37.0399 387.914C32.9139 390.235 29.6388 393.639 27.2148 398.126C24.8423 402.562 23.6561 407.925 23.6561 414.218ZM181.941 487.171C170.233 487.171 160.15 484.67 151.692 479.667C143.285 474.612 136.787 467.521 132.196 458.392C127.658 449.211 125.388 438.458 125.388 426.132C125.388 413.96 127.658 403.232 132.196 393.949C136.787 384.665 143.182 377.419 151.382 372.209C159.635 367 169.279 364.396 180.316 364.396C187.021 364.396 193.52 365.505 199.812 367.722C206.104 369.94 211.751 373.422 216.754 378.166C221.757 382.911 225.703 389.075 228.591 396.656C231.479 404.186 232.923 413.341 232.923 424.12V432.321H138.463V414.991H210.256C210.256 408.905 209.018 403.516 206.542 398.822C204.067 394.077 200.585 390.338 196.098 387.605C191.663 384.871 186.454 383.504 180.471 383.504C173.972 383.504 168.299 385.103 163.451 388.301C158.655 391.447 154.941 395.573 152.311 400.679C149.732 405.733 148.443 411.226 148.443 417.157V430.696C148.443 438.639 149.835 445.395 152.62 450.965C155.457 456.535 159.402 460.79 164.457 463.73C169.511 466.618 175.417 468.062 182.173 468.062C186.557 468.062 190.554 467.443 194.164 466.206C197.774 464.916 200.895 463.008 203.525 460.481C206.155 457.954 208.167 454.833 209.559 451.12L231.453 455.065C229.7 461.512 226.554 467.16 222.015 472.008C217.528 476.804 211.88 480.544 205.072 483.225C198.316 485.856 190.605 487.171 181.941 487.171ZM284.137 484.773L249.169 365.943H273.074L296.361 453.209H297.521L320.885 365.943H344.79L367.999 452.822H369.159L392.291 365.943H416.196L381.305 484.773H357.71L333.572 398.977H331.793L307.656 484.773H284.137ZM495.803 529.334V365.943H518.393V385.206H520.327C521.668 382.731 523.602 379.868 526.129 376.619C528.656 373.37 532.163 370.533 536.65 368.109C541.137 365.634 547.069 364.396 554.444 364.396C564.037 364.396 572.598 366.82 580.128 371.668C587.658 376.516 593.564 383.504 597.844 392.633C602.177 401.762 604.343 412.748 604.343 425.59C604.343 438.432 602.203 449.444 597.922 458.624C593.641 467.753 587.762 474.793 580.283 479.744C572.805 484.644 564.269 487.094 554.676 487.094C547.455 487.094 541.55 485.882 536.96 483.458C532.421 481.033 528.862 478.197 526.284 474.948C523.705 471.698 521.719 468.81 520.327 466.283H518.934V529.334H495.803ZM518.47 425.358C518.47 433.713 519.682 441.037 522.106 447.329C524.53 453.621 528.037 458.547 532.627 462.105C537.218 465.612 542.839 467.366 549.493 467.366C556.404 467.366 562.18 465.535 566.822 461.873C571.464 458.16 574.971 453.131 577.343 446.787C579.767 440.444 580.979 433.301 580.979 425.358C580.979 417.518 579.793 410.478 577.421 404.238C575.1 397.997 571.593 393.072 566.899 389.461C562.258 385.851 556.455 384.046 549.493 384.046C542.788 384.046 537.115 385.774 532.473 389.229C527.883 392.685 524.401 397.507 522.029 403.696C519.656 409.885 518.47 417.106 518.47 425.358ZM681.474 487.171C669.766 487.171 659.683 484.67 651.225 479.667C642.818 474.612 636.32 467.521 631.729 458.392C627.191 449.211 624.922 438.458 624.922 426.132C624.922 413.96 627.191 403.232 631.729 393.949C636.32 384.665 642.715 377.419 650.915 372.209C659.168 367 668.812 364.396 679.849 364.396C686.554 364.396 693.053 365.505 699.345 367.722C705.637 369.94 711.284 373.422 716.287 378.166C721.29 382.911 725.236 389.075 728.124 396.656C731.012 404.186 732.456 413.341 732.456 424.12V432.321H637.996V414.991H709.789C709.789 408.905 708.551 403.516 706.075 398.822C703.6 394.077 700.118 390.338 695.631 387.605C691.196 384.871 685.987 383.504 680.004 383.504C673.505 383.504 667.832 385.103 662.984 388.301C658.188 391.447 654.474 395.573 651.844 400.679C649.265 405.733 647.976 411.226 647.976 417.157V430.696C647.976 438.639 649.368 445.395 652.153 450.965C654.99 456.535 658.935 460.79 663.99 463.73C669.044 466.618 674.95 468.062 681.706 468.062C686.09 468.062 690.087 467.443 693.697 466.206C697.308 464.916 700.428 463.008 703.058 460.481C705.689 457.954 707.7 454.833 709.092 451.12L730.986 455.065C729.233 461.512 726.087 467.16 721.548 472.008C717.061 476.804 711.413 480.544 704.605 483.225C697.849 485.856 690.139 487.171 681.474 487.171ZM808.175 487.171C797.035 487.171 787.313 484.618 779.009 479.512C770.706 474.406 764.259 467.263 759.669 458.082C755.078 448.902 752.783 438.174 752.783 425.899C752.783 413.573 755.078 402.794 759.669 393.562C764.259 384.33 770.706 377.161 779.009 372.055C787.313 366.949 797.035 364.396 808.175 364.396C819.315 364.396 829.037 366.949 837.341 372.055C845.645 377.161 852.092 384.33 856.682 393.562C861.272 402.794 863.567 413.573 863.567 425.899C863.567 438.174 861.272 448.902 856.682 458.082C852.092 467.263 845.645 474.406 837.341 479.512C829.037 484.618 819.315 487.171 808.175 487.171ZM808.253 467.753C815.473 467.753 821.456 465.845 826.201 462.028C830.946 458.211 834.453 453.131 836.722 446.787C839.043 440.444 840.204 433.455 840.204 425.822C840.204 418.24 839.043 411.278 836.722 404.934C834.453 398.539 830.946 393.407 826.201 389.539C821.456 385.671 815.473 383.737 808.253 383.737C800.98 383.737 794.946 385.671 790.15 389.539C785.405 393.407 781.872 398.539 779.551 404.934C777.282 411.278 776.147 418.24 776.147 425.822C776.147 433.455 777.282 440.444 779.551 446.787C781.872 453.131 785.405 458.211 790.15 462.028C794.946 465.845 800.98 467.753 808.253 467.753ZM889.387 529.334V365.943H911.977V385.206H913.911C915.252 382.731 917.186 379.868 919.713 376.619C922.241 373.37 925.748 370.533 930.235 368.109C934.722 365.634 940.653 364.396 948.028 364.396C957.621 364.396 966.183 366.82 973.713 371.668C981.243 376.516 987.148 383.504 991.429 392.633C995.761 401.762 997.927 412.748 997.927 425.59C997.927 438.432 995.787 449.444 991.506 458.624C987.226 467.753 981.346 474.793 973.867 479.744C966.389 484.644 957.853 487.094 948.26 487.094C941.04 487.094 935.134 485.882 930.544 483.458C926.006 481.033 922.447 478.197 919.868 474.948C917.289 471.698 915.304 468.81 913.911 466.283H912.519V529.334H889.387ZM912.054 425.358C912.054 433.713 913.266 441.037 915.69 447.329C918.115 453.621 921.622 458.547 926.212 462.105C930.802 465.612 936.424 467.366 943.077 467.366C949.988 467.366 955.765 465.535 960.406 461.873C965.048 458.16 968.555 453.131 970.928 446.787C973.352 440.444 974.564 433.301 974.564 425.358C974.564 417.518 973.378 410.478 971.005 404.238C968.684 397.997 965.177 393.072 960.484 389.461C955.842 385.851 950.04 384.046 943.077 384.046C936.372 384.046 930.699 385.774 926.057 389.229C921.467 392.685 917.986 397.507 915.613 403.696C913.241 409.885 912.054 417.106 912.054 425.358ZM1046.98 326.333V484.773H1023.84V326.333H1046.98ZM1129.31 487.171C1117.6 487.171 1107.52 484.67 1099.06 479.667C1090.65 474.612 1084.15 467.521 1079.56 458.392C1075.03 449.211 1072.76 438.458 1072.76 426.132C1072.76 413.96 1075.03 403.232 1079.56 393.949C1084.15 384.665 1090.55 377.419 1098.75 372.209C1107 367 1116.65 364.396 1127.68 364.396C1134.39 364.396 1140.89 365.505 1147.18 367.722C1153.47 369.94 1159.12 373.422 1164.12 378.166C1169.13 382.911 1173.07 389.075 1175.96 396.656C1178.85 404.186 1180.29 413.341 1180.29 424.12V432.321H1085.83V414.991H1157.62C1157.62 408.905 1156.39 403.516 1153.91 398.822C1151.44 394.077 1147.95 390.338 1143.47 387.605C1139.03 384.871 1133.82 383.504 1127.84 383.504C1121.34 383.504 1115.67 385.103 1110.82 388.301C1106.02 391.447 1102.31 395.573 1099.68 400.679C1097.1 405.733 1095.81 411.226 1095.81 417.157V430.696C1095.81 438.639 1097.2 445.395 1099.99 450.965C1102.83 456.535 1106.77 460.79 1111.83 463.73C1116.88 466.618 1122.78 468.062 1129.54 468.062C1133.93 468.062 1137.92 467.443 1141.53 466.206C1145.14 464.916 1148.26 463.008 1150.89 460.481C1153.52 457.954 1155.54 454.833 1156.93 451.12L1178.82 455.065C1177.07 461.512 1173.92 467.16 1169.38 472.008C1164.9 476.804 1159.25 480.544 1152.44 483.225C1145.68 485.856 1137.97 487.171 1129.31 487.171ZM1221.2 486.243C1216.97 486.243 1213.33 484.747 1210.29 481.756C1207.25 478.713 1205.72 475.051 1205.72 470.77C1205.72 466.541 1207.25 462.931 1210.29 459.939C1213.33 456.896 1216.97 455.375 1221.2 455.375C1225.43 455.375 1229.06 456.896 1232.11 459.939C1235.15 462.931 1236.67 466.541 1236.67 470.77C1236.67 473.607 1235.95 476.211 1234.5 478.584C1233.11 480.905 1231.25 482.761 1228.93 484.154C1226.61 485.546 1224.03 486.243 1221.2 486.243ZM97.6925 811.773V653.333H197.027V673.912H121.598V722.186H191.843V742.688H121.598V791.194H197.955V811.773H97.6925ZM328.757 692.943L285.665 811.773H260.909L217.741 692.943H242.574L272.668 784.386H273.906L303.923 692.943H328.757ZM397.668 814.171C385.96 814.171 375.877 811.67 367.419 806.667C359.012 801.612 352.513 794.521 347.923 785.392C343.385 776.211 341.115 765.458 341.115 753.132C341.115 740.96 343.385 730.232 347.923 720.949C352.513 711.665 358.909 704.419 367.109 699.209C375.361 694 385.006 691.396 396.043 691.396C402.748 691.396 409.246 692.505 415.538 694.722C421.831 696.94 427.478 700.422 432.481 705.166C437.484 709.911 441.429 716.075 444.318 723.656C447.206 731.186 448.65 740.341 448.65 751.12V759.321H354.19V741.991H425.982C425.982 735.905 424.745 730.516 422.269 725.822C419.793 721.077 416.312 717.338 411.825 714.605C407.39 711.871 402.18 710.504 396.198 710.504C389.699 710.504 384.026 712.103 379.178 715.301C374.381 718.447 370.668 722.573 368.038 727.679C365.459 732.733 364.169 738.226 364.169 744.157V757.696C364.169 765.639 365.562 772.395 368.347 777.965C371.184 783.535 375.129 787.79 380.184 790.73C385.238 793.618 391.143 795.062 397.9 795.062C402.284 795.062 406.281 794.443 409.891 793.206C413.501 791.916 416.622 790.008 419.252 787.481C421.882 784.954 423.894 781.833 425.286 778.12L447.18 782.065C445.426 788.512 442.28 794.16 437.742 799.008C433.255 803.804 427.607 807.544 420.799 810.225C414.043 812.856 406.332 814.171 397.668 814.171ZM474.315 811.773V692.943H496.673V711.82H497.911C500.077 705.424 503.894 700.396 509.36 696.734C514.879 693.02 521.12 691.164 528.082 691.164C529.526 691.164 531.228 691.215 533.188 691.318C535.2 691.422 536.773 691.551 537.907 691.705V713.831C536.979 713.573 535.329 713.29 532.956 712.98C530.584 712.619 528.211 712.439 525.839 712.439C520.372 712.439 515.498 713.599 511.217 715.92C506.988 718.189 503.636 721.361 501.16 725.436C498.684 729.458 497.447 734.049 497.447 739.206V811.773H474.315ZM576.163 856.334C572.708 856.334 569.562 856.05 566.725 855.483C563.889 854.967 561.774 854.4 560.381 853.781L565.952 834.827C570.181 835.962 573.946 836.452 577.247 836.297C580.547 836.142 583.461 834.904 585.989 832.583C588.567 830.262 590.837 826.472 592.797 821.211L595.659 813.32L552.181 692.943H576.937L607.031 785.16H608.269L638.363 692.943H663.197L614.226 827.632C611.957 833.821 609.069 839.056 605.561 843.337C602.054 847.669 597.877 850.918 593.029 853.085C588.181 855.251 582.559 856.334 576.163 856.334ZM725.377 814.094C715.784 814.094 707.223 811.644 699.693 806.744C692.215 801.793 686.335 794.753 682.054 785.624C677.825 776.444 675.71 765.432 675.71 752.59C675.71 739.748 677.851 728.762 682.132 719.633C686.464 710.504 692.395 703.516 699.925 698.668C707.455 693.82 715.991 691.396 725.532 691.396C732.907 691.396 738.839 692.634 743.326 695.109C747.864 697.533 751.371 700.37 753.847 703.619C756.374 706.868 758.334 709.731 759.727 712.206H761.119V653.333H784.251V811.773H761.661V793.283H759.727C758.334 795.81 756.323 798.698 753.692 801.948C751.114 805.197 747.555 808.033 743.016 810.458C738.478 812.882 732.598 814.094 725.377 814.094ZM730.483 794.366C737.137 794.366 742.758 792.612 747.349 789.105C751.99 785.547 755.497 780.621 757.87 774.329C760.294 768.037 761.506 760.713 761.506 752.358C761.506 744.106 760.32 736.885 757.947 730.696C755.575 724.507 752.093 719.685 747.503 716.229C742.913 712.774 737.24 711.046 730.483 711.046C723.521 711.046 717.719 712.851 713.077 716.461C708.435 720.072 704.928 724.997 702.555 731.238C700.234 737.478 699.074 744.518 699.074 752.358C699.074 760.301 700.26 767.444 702.633 773.787C705.005 780.131 708.512 785.16 713.154 788.873C717.847 792.535 723.624 794.366 730.483 794.366ZM851.847 814.403C844.317 814.403 837.509 813.011 831.423 810.225C825.337 807.389 820.515 803.289 816.956 797.925C813.449 792.561 811.695 785.985 811.695 778.197C811.695 771.492 812.985 765.974 815.563 761.641C818.142 757.309 821.623 753.879 826.007 751.352C830.391 748.825 835.291 746.917 840.706 745.627C846.122 744.338 851.64 743.358 857.262 742.688C864.379 741.862 870.156 741.192 874.591 740.676C879.027 740.109 882.25 739.206 884.262 737.968C886.273 736.731 887.279 734.719 887.279 731.934V731.393C887.279 724.636 885.371 719.401 881.554 715.688C877.789 711.974 872.167 710.118 864.689 710.118C856.901 710.118 850.763 711.845 846.276 715.301C841.841 718.705 838.772 722.496 837.07 726.673L815.331 721.722C817.91 714.502 821.675 708.674 826.626 704.238C831.629 699.751 837.38 696.502 843.878 694.49C850.377 692.427 857.21 691.396 864.379 691.396C869.124 691.396 874.153 691.963 879.465 693.098C884.829 694.181 889.832 696.192 894.474 699.132C899.167 702.072 903.009 706.275 906.001 711.742C908.992 717.158 910.488 724.198 910.488 732.862V811.773H887.898V795.526H886.969C885.474 798.518 883.23 801.458 880.239 804.346C877.247 807.234 873.405 809.632 868.712 811.541C864.018 813.449 858.397 814.403 851.847 814.403ZM856.875 795.836C863.271 795.836 868.738 794.572 873.276 792.045C877.866 789.518 881.348 786.217 883.72 782.143C886.144 778.017 887.356 773.607 887.356 768.914V753.596C886.531 754.421 884.932 755.195 882.56 755.917C880.239 756.587 877.583 757.18 874.591 757.696C871.6 758.16 868.686 758.599 865.849 759.011C863.013 759.372 860.64 759.682 858.732 759.939C854.245 760.507 850.145 761.461 846.431 762.802C842.769 764.143 839.83 766.077 837.612 768.604C835.446 771.08 834.363 774.381 834.363 778.507C834.363 784.231 836.477 788.564 840.706 791.504C844.935 794.392 850.325 795.836 856.875 795.836ZM951.664 856.334C948.209 856.334 945.063 856.05 942.226 855.483C939.389 854.967 937.275 854.4 935.882 853.781L941.452 834.827C945.682 835.962 949.447 836.452 952.747 836.297C956.048 836.142 958.962 834.904 961.489 832.583C964.068 830.262 966.337 826.472 968.297 821.211L971.16 813.32L927.682 692.943H952.438L982.532 785.16H983.77L1013.86 692.943H1038.7L989.727 827.632C987.458 833.821 984.569 839.056 981.062 843.337C977.555 847.669 973.377 850.918 968.529 853.085C963.681 855.251 958.06 856.334 951.664 856.334ZM1068.23 813.243C1064 813.243 1060.37 811.747 1057.32 808.756C1054.28 805.713 1052.76 802.051 1052.76 797.77C1052.76 793.541 1054.28 789.931 1057.32 786.939C1060.37 783.896 1064 782.375 1068.23 782.375C1072.46 782.375 1076.1 783.896 1079.14 786.939C1082.18 789.931 1083.7 793.541 1083.7 797.77C1083.7 800.607 1082.98 803.211 1081.54 805.584C1080.14 807.905 1078.29 809.761 1075.97 811.154C1073.65 812.546 1071.07 813.243 1068.23 813.243Z" fill="url(#paint0_linear_1062_5721)"/>
<defs>
<linearGradient id="paint0_linear_1062_5721" x1="-72.7883" y1="406.273" x2="1252.21" y2="406.273" gradientUnits="userSpaceOnUse">
<stop stop-color="#339B5E"/>
<stop offset="0.18" stop-color="#5372B4"/>
<stop offset="0.365" stop-color="#775AA2"/>
<stop offset="0.565" stop-color="#C23550"/>
<stop offset="0.75" stop-color="#EC7E32"/>
<stop offset="1" stop-color="#EFB12F"/>
</linearGradient>
</defs>
</svg>
