<svg width="42" height="42" viewBox="0 0 42 42" fill="none" xmlns="http://www.w3.org/2000/svg">
<path fill-rule="evenodd" clip-rule="evenodd" d="M19.5004 3.1499C21.2035 3.1499 22.5819 4.56908 22.5819 6.27218C22.5819 7.97486 21.2035 9.39404 19.5004 9.39404C17.7973 9.39404 16.3781 7.97486 16.3781 6.27218C16.3781 4.56908 17.7977 3.1499 19.5004 3.1499ZM19.7032 9.67796C20.875 9.64142 21.781 10.3705 22.2577 11.1379L25.5013 16.5307L31.1781 18.923C32.7997 19.6118 32.0294 21.7609 30.2049 21.2746C30.1396 21.2302 30.0719 21.1895 30.0021 21.1528L26.1906 29.5864C26.1906 29.5864 27.4069 32.3844 28.9479 35.5474C30.4481 38.7504 26.7987 40.1292 25.4606 37.1691L24.1229 34.1686L22.1766 38.4261L21.3656 38.0611L23.6361 33.1144L19.8246 24.8026C19.6625 24.8429 19.5004 24.8026 19.2975 24.8026C19.2975 24.8026 14.8779 34.8578 13.6611 37.4937C12.4855 40.1292 8.99871 38.5479 10.1743 35.9523C11.3503 33.3576 16.9459 20.7475 16.9459 20.7475L12.7867 20.8155C12.1567 20.821 12.0059 20.7206 11.966 20.2485C11.9017 19.0011 11.7917 16.0662 12.0802 14.7058C12.4524 12.9523 12.6745 11.0224 13.9047 10.4482C15.1353 9.8741 17.2702 11.4621 17.2702 11.4621C17.5944 10.4079 18.6083 9.67796 19.7032 9.67796ZM22.2169 16.0032V20.8697L25.7042 28.4927L29.191 20.829L24.1229 18.7206C23.8793 18.5988 23.6769 18.4366 23.5143 18.1935L22.2169 16.0032Z" fill="#C23550"/>
</svg>
