<svg width="120" height="104" viewBox="0 0 120 104" fill="none" xmlns="http://www.w3.org/2000/svg">
<path d="M15.998 78.125H103.573V83.9375C103.573 88.0484 101.94 91.9909 99.0331 94.8977C96.1263 97.8045 92.1838 99.4375 88.073 99.4375H31.498C27.3872 99.4375 23.4447 97.8045 20.5379 94.8977C17.6311 91.9909 15.998 88.0484 15.998 83.9375V78.125Z" fill="url(#paint0_linear_613_4869)" stroke="black" stroke-width="7.65217" stroke-linecap="round" stroke-linejoin="round"/>
<path d="M93.1088 54.4869H103.184C104.743 54.4349 106.296 54.6972 107.752 55.2581C109.207 55.819 110.535 56.667 111.656 57.7517C112.777 58.8364 113.668 60.1356 114.276 61.5719C114.884 63.0082 115.197 64.5521 115.196 66.1119C115.196 69.2978 113.931 72.3532 111.678 74.606C109.425 76.8588 106.37 78.1244 103.184 78.1244H16.3839C14.8241 78.1253 13.2802 77.8123 11.8439 77.204C10.4076 76.5957 9.10838 75.7045 8.02368 74.5837C6.93897 73.4628 6.09091 72.1351 5.53002 70.6797C4.96913 69.2243 4.70688 67.6708 4.75888 66.1119C4.70475 64.5707 4.96851 63.0349 5.53357 61.6C6.09862 60.1651 6.95296 58.8619 8.04343 57.7714C9.13389 56.6809 10.4371 55.8266 11.872 55.2615C13.3068 54.6965 14.8427 54.4328 16.3839 54.4869H50.4839" fill="url(#paint1_linear_613_4869)"/>
<path d="M93.1088 54.4869H103.184C104.743 54.4349 106.296 54.6972 107.752 55.2581C109.207 55.819 110.535 56.667 111.656 57.7517C112.777 58.8364 113.668 60.1356 114.276 61.5719C114.884 63.0082 115.197 64.5521 115.196 66.1119C115.196 69.2978 113.931 72.3532 111.678 74.606C109.425 76.8588 106.37 78.1244 103.184 78.1244H16.3839C14.8241 78.1253 13.2802 77.8123 11.8439 77.204C10.4076 76.5957 9.10838 75.7045 8.02368 74.5837C6.93897 73.4628 6.09091 72.1351 5.53002 70.6797C4.96913 69.2243 4.70688 67.6708 4.75888 66.1119C4.70475 64.5707 4.96851 63.0349 5.53357 61.6C6.09862 60.1651 6.95296 58.8619 8.04343 57.7714C9.13389 56.6809 10.4371 55.8266 11.872 55.2615C13.3068 54.6965 14.8427 54.4328 16.3839 54.4869H50.4839" stroke="black" stroke-width="7.65217" stroke-linecap="round" stroke-linejoin="round"/>
<path d="M115.198 46.7378C115.169 48.782 114.333 50.7319 112.873 52.1628C112.193 52.9234 111.356 53.5257 110.418 53.9274C109.481 54.3292 108.467 54.5204 107.448 54.4878H87.2978L74.1228 69.6003L60.9477 54.4878H12.1228C11.1225 54.4892 10.1323 54.2867 9.21276 53.8927C8.29327 53.4987 7.46368 52.9215 6.77469 52.1962C6.0857 51.471 5.55179 50.613 5.20544 49.6745C4.85908 48.736 4.70755 47.7368 4.7602 46.7378C4.70755 45.7388 4.85908 44.7396 5.20544 43.8012C5.55179 42.8627 6.0857 42.0047 6.77469 41.2794C7.46368 40.5542 8.29327 39.9769 9.21276 39.5829C10.1323 39.1889 11.1225 38.9864 12.1228 38.9878H107.448C109.503 38.9878 111.474 39.8043 112.928 41.2577C114.381 42.7111 115.198 44.6824 115.198 46.7378Z" fill="white" stroke="black" stroke-width="7.65217" stroke-linecap="round" stroke-linejoin="round"/>
<path d="M49.3229 4.5H70.6354C79.4738 4.5 87.9501 8.01099 94.1998 14.2606C100.449 20.5103 103.961 28.9867 103.961 37.825H15.998C15.998 28.9867 19.509 20.5103 25.7586 14.2606C32.0083 8.01099 40.4846 4.5 49.3229 4.5Z" fill="url(#paint2_linear_613_4869)" stroke="black" stroke-width="7.65217" stroke-linecap="round" stroke-linejoin="round"/>
<path d="M38.085 21.9375L42.735 26.975" stroke="black" stroke-width="7.65217" stroke-linecap="round" stroke-linejoin="round"/>
<path d="M79.9355 20L84.973 25.425" stroke="black" stroke-width="7.65217" stroke-linecap="round" stroke-linejoin="round"/>
<path d="M56.6855 22.3261L62.1105 17.2886" stroke="black" stroke-width="7.65217" stroke-linecap="round" stroke-linejoin="round"/>
<defs>
<linearGradient id="paint0_linear_613_4869" x1="16.3026" y1="81.4396" x2="27.7712" y2="121.276" gradientUnits="userSpaceOnUse">
<stop stop-color="#FFA654"/>
<stop offset="1" stop-color="#F26702"/>
</linearGradient>
<linearGradient id="paint1_linear_613_4869" x1="115.196" y1="78.1244" x2="105.516" y2="32.9079" gradientUnits="userSpaceOnUse">
<stop stop-color="#FFD15C"/>
<stop offset="1" stop-color="#F3AF00"/>
</linearGradient>
<linearGradient id="paint2_linear_613_4869" x1="16.3039" y1="9.68288" x2="41.4781" y2="65.853" gradientUnits="userSpaceOnUse">
<stop stop-color="#FFA654"/>
<stop offset="1" stop-color="#F26702"/>
</linearGradient>
</defs>
</svg>
