<svg width="124" height="126" viewBox="0 0 124 126" fill="none" xmlns="http://www.w3.org/2000/svg">
<path d="M3.875 123.226H117.413" stroke="black" stroke-width="5.43478" stroke-linecap="round" stroke-linejoin="round"/>
<path d="M10.4609 109.276C12.5456 97.4006 18.7279 86.6321 27.932 78.844C37.1361 71.0559 48.7794 66.7412 60.836 66.6509C72.8681 66.679 84.499 70.9801 93.6545 78.7871C102.81 86.5941 108.895 97.3993 110.823 109.276" fill="url(#paint0_linear_658_4183)"/>
<path d="M10.4609 109.276C12.5456 97.4006 18.7279 86.6321 27.932 78.844C37.1361 71.0559 48.7794 66.7412 60.836 66.6509C72.8681 66.679 84.499 70.9801 93.6545 78.7871C102.81 86.5941 108.895 97.3993 110.823 109.276" stroke="black" stroke-width="5.43478" stroke-linecap="round" stroke-linejoin="round"/>
<path d="M60.8367 66.2624C66.401 66.2624 70.9117 61.7516 70.9117 56.1873C70.9117 50.6231 66.401 46.1123 60.8367 46.1123C55.2725 46.1123 50.7617 50.6231 50.7617 56.1873C50.7617 61.7516 55.2725 66.2624 60.8367 66.2624Z" stroke="black" stroke-width="5.43478" stroke-linecap="round" stroke-linejoin="round"/>
<path d="M60.8369 15.5V29.8374" stroke="black" stroke-width="5.43478" stroke-linecap="round" stroke-linejoin="round"/>
<path d="M31 25.1875V39.1375" stroke="black" stroke-width="5.43478" stroke-linecap="round" stroke-linejoin="round"/>
<path d="M90.6758 25.1875V39.1375" stroke="black" stroke-width="5.43478" stroke-linecap="round" stroke-linejoin="round"/>
<defs>
<linearGradient id="paint0_linear_658_4183" x1="121.472" y1="110.66" x2="85.8422" y2="32.352" gradientUnits="userSpaceOnUse">
<stop stop-color="#9C6060"/>
<stop offset="1" stop-color="#9B5139"/>
</linearGradient>
</defs>
</svg>
