<svg width="39" height="39" viewBox="0 0 39 39" fill="none" xmlns="http://www.w3.org/2000/svg">
<path d="M14.083 14.6252H10.2913C6.10263 14.6252 2.70801 18.0198 2.70801 22.2085C2.70801 26.3972 6.10263 29.7918 10.2913 29.7918H25.9997C31.6845 29.7918 36.2913 25.185 36.2913 19.5002C36.2913 13.8154 31.6845 9.2085 25.9997 9.2085C22.916 9.2085 20.1551 10.5702 18.2701 12.7185C17.2778 13.895 15.7438 14.6252 14.083 14.6252Z" fill="white"/>
<path d="M15.7083 16.7917C17.0625 16.7917 18.1475 16.0258 19.4003 14.7729C21.2713 12.903 23.2781 11.375 26 11.375C30.4872 11.375 34.125 15.0128 34.125 19.5C34.125 23.9872 30.4872 27.625 26 27.625H10.2917C7.30004 27.625 4.875 25.2 4.875 22.2083C4.875 19.2167 7.30004 16.7917 10.2917 16.7917L10.3085 16.263L15.7425 16.2467L15.7083 16.7917Z" fill="#EA5A47"/>
<path d="M26.0003 22.2082C27.4961 22.2082 28.7087 20.9956 28.7087 19.4998C28.7087 18.0041 27.4961 16.7915 26.0003 16.7915C24.5046 16.7915 23.292 18.0041 23.292 19.4998C23.292 20.9956 24.5046 22.2082 26.0003 22.2082Z" fill="white"/>
<path d="M15.7083 16.7917C17.0625 16.7917 18.1475 16.0258 19.4003 14.7729C21.2713 12.903 23.2781 11.375 26 11.375C30.4872 11.375 34.125 15.0128 34.125 19.5C34.125 23.9872 30.4872 27.625 26 27.625H10.2917C7.30004 27.625 4.875 25.2 4.875 22.2083C4.875 19.2167 7.30004 16.7917 10.2917 16.7917" stroke="black" stroke-width="2" stroke-miterlimit="10" stroke-linecap="round" stroke-linejoin="round"/>
<path d="M14.083 14.6252H10.2913C6.10263 14.6252 2.70801 18.0198 2.70801 22.2085C2.70801 26.3972 6.10263 29.7918 10.2913 29.7918H25.9997C31.6845 29.7918 36.2913 25.185 36.2913 19.5002C36.2913 13.8154 31.6845 9.2085 25.9997 9.2085C22.916 9.2085 20.1551 10.5702 18.2701 12.7185C17.2778 13.895 15.7438 14.6252 14.083 14.6252Z" stroke="black" stroke-width="2" stroke-miterlimit="10" stroke-linecap="round" stroke-linejoin="round"/>
<path d="M25.9993 22.2087C27.4951 22.2087 28.7077 20.9961 28.7077 19.5003C28.7077 18.0046 27.4951 16.792 25.9993 16.792C24.5036 16.792 23.291 18.0046 23.291 19.5003C23.291 20.9961 24.5036 22.2087 25.9993 22.2087Z" stroke="black" stroke-width="2" stroke-miterlimit="10" stroke-linecap="round" stroke-linejoin="round"/>
</svg>
