<svg width="46" height="46" viewBox="0 0 46 46" fill="none" xmlns="http://www.w3.org/2000/svg">
<path opacity="0.5" d="M15.7334 10.4111C15.2303 11.1011 15.6616 13.2717 15.047 16.4558C14.4325 19.6398 12.7506 22.2884 12.9842 26.0834C13.455 33.7561 20.948 35.1684 20.948 35.1684V38.4244C20.948 38.4244 15.9527 39.003 15.9167 41.1377C15.8808 43.2723 19.5356 44.1061 22.867 44.0342C26.1984 43.9623 29.5263 43.0208 29.5622 41.1017C29.6017 38.9994 24.4591 38.3166 24.4591 38.3166C24.4591 38.3166 24.4231 37.5187 24.4231 36.8323C24.4231 36.1459 24.495 35.1684 24.495 35.1684C24.495 35.1684 32.0706 34.0616 32.3833 26.1912C32.527 22.5723 30.9709 19.0972 30.7553 16.0209C30.5397 12.9447 30.7913 11.5323 30.7913 10.6267C30.7913 9.72109 30.0258 11.9133 22.7664 12.0103C16.1934 12.1002 16.3156 9.61328 15.7334 10.4111Z" fill="white"/>
<path opacity="0.7" d="M15.7334 10.4111C15.2303 11.1011 15.6616 13.2717 15.047 16.4558C14.4325 19.6398 12.7506 22.2884 12.9842 26.0834C13.455 33.7561 20.948 35.1684 20.948 35.1684V38.4244C20.948 38.4244 15.9527 39.003 15.9167 41.1376C15.8808 43.2723 19.5356 44.1061 22.867 44.0342C26.1984 43.9623 29.5263 43.0208 29.5622 41.1017C29.6017 38.9994 24.4591 38.3166 24.4591 38.3166C24.4591 38.3166 24.4231 37.5187 24.4231 36.8323C24.4231 36.1459 24.495 35.1684 24.495 35.1684C24.495 35.1684 32.0706 34.0615 32.3833 26.1912C32.527 22.5723 30.9709 19.0972 30.7553 16.0209C30.5397 12.9447 30.7913 11.5323 30.7913 10.6267C30.7913 9.72108 26.3386 9.21436 22.8275 9.14249C19.3164 9.07061 16.3156 9.61327 15.7334 10.4111Z" fill="#E0E0E0"/>
<path d="M16.6427 10.5836C17.5339 10.4075 19.5356 10.0913 22.5256 10.0913C26.6872 10.0913 29.9 10.7417 29.9 10.7417L30.378 9.83251C30.378 9.83251 28.6602 8.80829 22.6514 8.91251C20.7862 8.94485 19.3847 9.04188 18.3533 9.15329C16.4558 9.35813 16.2941 10.6555 16.6427 10.5836Z" fill="#C9C9C9"/>
<path d="M16.2186 15.3848C16.1252 15.2447 16.0245 14.8458 16.4198 14.5906C16.8152 14.3355 17.6777 13.7065 22.5148 13.7281C27.3556 13.7497 29.7275 14.4037 29.7275 14.9608C29.7275 15.2986 29.2388 15.8233 29.2388 15.8233L23.2588 17.1278L16.2186 15.3848Z" fill="#FFEBC9"/>
<path d="M23.1653 15.985C26.0044 15.9527 29.7275 14.9608 29.7275 14.9608C29.7275 14.9608 30.1048 17.4656 30.3097 18.7989C30.493 20.0136 32.2683 24.5058 31.0931 28.4697C30.4247 30.7194 28.2361 33.925 23.0539 33.925C16.2689 33.925 13.8036 29.2531 13.7569 25.8175C13.7137 22.6945 15.0722 19.798 15.4962 18.4431C15.888 17.1925 16.1359 14.9608 16.1359 14.9608C16.1359 14.9608 18.0586 16.0425 23.1653 15.985Z" fill="url(#paint0_radial_921_5230)"/>
<path d="M16.1791 19.5608C15.8556 20.0998 15.5178 21.1528 15.2339 22.3531C15.0398 23.1689 14.835 24.2075 14.8745 25.6378C14.9069 26.8058 15.198 29.2675 17.4944 29.077C18.267 29.0123 17.4081 27.5533 17.6669 23.7259C17.9041 20.1897 18.9139 19.3739 17.3506 19.1763C16.5816 19.0864 16.3695 19.2445 16.1791 19.5608ZM21.8752 35.4416C21.8752 35.4416 21.9758 39.4414 22.0117 39.5995C22.1231 40.0811 22.4034 40.613 23.6756 40.5231C24.9478 40.4333 24.3117 39.2222 24.265 39.1323C24.2183 39.0425 24.0673 36.1208 24.0673 36.1208L23.9308 35.0606L21.8752 35.4416Z" fill="white"/>
<path d="M20.9695 38.7658C20.7647 38.7227 19.9094 40.1422 19.9094 40.2931C19.9094 40.4441 20.8977 41.4072 22.8958 41.4072C24.8939 41.4072 25.7205 40.4477 25.7169 40.2644C25.7133 39.9841 24.6747 38.4963 24.6747 38.4963L24.7214 35.4092C24.7214 35.4092 24.495 34.9277 24.1859 35.1038C23.8769 35.2799 23.8769 35.5063 23.8769 35.747C23.8769 35.9878 23.8481 37.7847 23.8661 38.3166C23.8841 38.8484 24.265 39.9697 22.9137 40.038C21.3433 40.1206 21.1744 38.8089 20.9695 38.7658Z" fill="#9F9F9F"/>
<path d="M21.5481 34.8953C21.5625 35.2008 21.9722 35.8692 22.8922 35.8872C23.8158 35.9052 24.3872 35.438 24.3872 35.438C24.3872 35.438 27.8947 35.2044 30.4319 32.297C32.7786 29.6089 33.1991 25.3359 32.0814 21.4367C30.8955 17.3003 30.8847 16.4234 30.8488 14.2133C30.8344 13.3616 30.8811 11.4749 30.8667 11.2556C30.8416 10.81 30.4067 10.6806 30.3888 11.8414C30.3672 13.11 30.3025 13.8647 30.3708 15.507C30.4319 16.9625 30.9745 19.4817 31.4848 21.5625C32.3006 24.8975 32.297 29.4184 29.8928 31.8011C27.4203 34.252 25.1347 34.615 23.8266 34.6833C22.2058 34.7731 21.5266 34.5108 21.5481 34.8953Z" fill="#9F9F9F"/>
<path d="M24.5453 14.8889C24.5453 14.8889 26.0978 12.0499 26.6333 10.9609C27.8048 8.59985 28.3798 7.32048 28.7033 6.97907C29.0267 6.63407 35.5709 5.62423 35.765 5.60266C35.9591 5.5811 35.765 6.44001 35.765 6.44001C35.8081 6.61251 35.6248 7.50376 35.6248 7.50376L29.5083 8.52798C29.5083 8.52798 28.6745 10.2027 28.2505 11.0508C27.3269 12.9016 26.317 14.7667 26.317 14.7667L24.5453 14.8889Z" fill="#FF2A23"/>
<path d="M35.2008 6.46875C35.1613 6.91079 35.2259 7.49297 35.5745 7.51454C35.9806 7.53969 36.0705 6.88204 36.11 6.50469C36.1459 6.16688 36.0741 5.60266 35.7722 5.60266C35.4703 5.60266 35.2475 5.9261 35.2008 6.46875ZM30.2558 8.60704C30.207 8.59946 30.162 8.57658 30.1271 8.54169C30.0922 8.5068 30.0693 8.46173 30.0617 8.41297L29.7634 6.59813C29.7561 6.53785 29.7723 6.47706 29.8087 6.42848C29.8452 6.37991 29.899 6.34733 29.959 6.33757C30.0189 6.32781 30.0803 6.34164 30.1303 6.37614C30.1802 6.41065 30.2149 6.46315 30.227 6.52266L30.5253 8.33751C30.5313 8.37425 30.5284 8.41187 30.5169 8.44729C30.5055 8.4827 30.4858 8.51489 30.4595 8.54121C30.4332 8.56753 30.401 8.58722 30.3656 8.59866C30.3302 8.61011 30.2925 8.61298 30.2558 8.60704Z" fill="#DB0D25"/>
<path d="M29.882 8.72563C29.7922 8.72563 29.7059 8.67531 29.67 8.58547L28.9225 6.89281C28.8722 6.77422 28.9225 6.63766 29.0411 6.58375C29.1597 6.52984 29.2962 6.58375 29.3502 6.70234L30.0977 8.395C30.148 8.51359 30.0977 8.65016 29.9791 8.70406C29.9467 8.72203 29.9144 8.72563 29.882 8.72563Z" fill="#DB0D25"/>
<path d="M29.44 8.84782C29.4067 8.84818 29.3737 8.8413 29.3433 8.82765C29.3128 8.814 29.2858 8.7939 29.2639 8.76875L28.1606 7.51813C28.1402 7.49504 28.1246 7.46816 28.1147 7.43902C28.1047 7.40988 28.1006 7.37906 28.1026 7.34833C28.1046 7.3176 28.1127 7.28758 28.1264 7.25998C28.14 7.23238 28.159 7.20775 28.1822 7.1875C28.2053 7.16713 28.2322 7.15151 28.2613 7.14156C28.2904 7.13161 28.3213 7.12752 28.352 7.12952C28.3827 7.13153 28.4127 7.13959 28.4403 7.15324C28.4679 7.16689 28.4926 7.18586 28.5128 7.20907L29.6161 8.45969C29.6459 8.49346 29.6653 8.53513 29.6719 8.57967C29.6786 8.62421 29.6722 8.66973 29.6536 8.71074C29.635 8.75175 29.605 8.78651 29.5671 8.81083C29.5292 8.83515 29.485 8.84799 29.44 8.84782Z" fill="#DB0D25"/>
<path d="M20.337 14.8709L9.56297 1.13562C9.56297 1.13562 9.65281 0.797808 9.84328 0.654058C10.0337 0.506714 10.3248 0.506714 10.3248 0.506714L21.5302 14.8997L20.337 14.8709Z" fill="#F8C976"/>
<path d="M16.1467 10.0409L17.1134 11.0076L20.107 12.0211L26.2955 12.1109L29.9 10.7453L30.3708 9.83249C30.3708 9.83249 31.0392 10.0876 31.0105 10.8244C30.9853 11.4101 30.7769 12.0678 29.2459 12.6069C27.715 13.1459 25.9613 13.4622 23.0108 13.4837C20.0603 13.5053 16.3264 13.0561 15.5861 11.615C15.1009 10.677 16.1467 10.0409 16.1467 10.0409Z" fill="#C9C9C9"/>
<path d="M15.8808 10.6411C15.7981 10.9861 16.7972 11.8881 19.6003 12.3625C22.6981 12.8872 26.3134 12.3733 27.6611 12.1325C29.6772 11.7731 30.3312 11.1658 30.2342 10.7884C30.1084 10.3069 29.6772 10.6231 29.3502 10.7561C29.0231 10.8855 25.9109 11.7048 22.6838 11.6078C19.4566 11.5108 18.2778 11.1981 17.6705 10.9034C17.0631 10.6087 16.0533 9.92233 15.8808 10.6411Z" fill="#F9FBFA"/>
<path d="M21.1348 34.9384C21.1672 34.5719 20.3119 34.4677 19.0253 33.8891C17.7387 33.3105 14.6517 31.8622 13.6562 28.2289C12.6931 24.7214 13.6275 22.3747 14.9105 18.6803C15.4567 17.1063 15.8412 14.7236 15.8736 13.4694C15.9059 12.2152 15.9706 11.7516 15.5861 11.615C15.2016 11.4784 15.295 11.9924 15.295 13.3724C15.295 14.7524 14.8494 16.8116 14.3319 18.2922C13.0453 21.9578 11.7408 24.7574 13.0381 28.8003C13.8503 31.3303 15.2734 32.9511 18.5114 34.5C19.9884 35.208 21.0881 35.4667 21.1348 34.9384Z" fill="#D5D5D5"/>
<path d="M17.0164 40.5375C16.5672 40.6166 16.4594 41.2562 17.5519 41.9355C18.6444 42.6147 21.1959 42.9022 21.3181 42.5105C21.4403 42.1187 19.7764 41.9355 18.4791 41.2958C17.6166 40.8753 17.4872 40.4548 17.0164 40.5375ZM24.5777 42.6758C24.7466 42.9633 27.7042 42.7584 28.4481 41.8312C29.1884 40.9041 28.635 40.1242 27.7689 40.1853C27.0861 40.2356 28.0348 40.7208 27.2119 41.3389C26.3889 41.9534 24.2866 42.1798 24.5777 42.6758Z" fill="white"/>
<path d="M16.0784 40.5555C15.852 40.5734 15.3597 41.5006 15.7909 42.3667C16.0497 42.8878 16.56 43.24 17.2716 43.603C18.3245 44.1384 19.992 44.602 22.6478 44.5805C24.628 44.5661 26.0008 44.3253 27.0034 44.0342C28.998 43.4592 29.4759 42.3524 29.5766 42.0361C29.7167 41.5941 29.6736 40.922 29.5586 40.9041C29.4328 40.8861 29.2711 41.5078 29.0195 41.8313C28.538 42.4458 27.7905 42.8914 26.7483 43.1358C25.6953 43.3838 24.6819 43.6102 22.5364 43.5599C18.1125 43.4556 16.9194 42.3452 16.4666 41.727C15.9598 41.037 16.3444 40.5339 16.0784 40.5555Z" fill="#9F9F9F"/>
<path d="M13.092 4.72939C12.172 5.44455 10.9214 7.06173 11.2736 9.95111C11.5288 12.057 12.9267 13.6814 13.0309 13.6599C13.1352 13.6383 21.5697 6.49033 21.5481 6.34658C21.5266 6.20283 20.5634 4.31611 18.1556 3.65845C15.7478 3.0008 13.8323 4.1508 13.092 4.72939Z" fill="#FF8E00"/>
<path d="M17.4836 8.58906L20.3155 6.24952C20.3155 6.24952 19.3056 4.97374 17.7639 4.62515L17.4836 8.58906ZM12.2619 9.46952C12.4056 11.022 13.1531 12.2367 13.1531 12.2367L16.1287 9.73187L12.2619 9.46952ZM16.7002 8.38062L17.0559 4.52812C16.1791 4.39156 15.1117 4.52093 14.163 5.21093L16.7002 8.38062ZM13.5736 5.85062C12.7902 6.64843 12.3984 7.49656 12.3086 8.54593L16.1252 9.01671L13.5736 5.85062Z" fill="#FFA500"/>
<path d="M10.8423 2.78517C10.8423 2.78517 11.2161 3.21283 11.6042 2.83908C11.9277 2.53002 11.6366 2.1922 11.6366 2.1922C11.6366 2.1922 12.862 1.78611 13.6023 2.63064C14.3427 3.47517 14.3211 4.70783 13.4155 5.34752C12.5422 5.96564 11.3455 5.91173 10.6986 4.83361C10.0625 3.75548 10.8423 2.78517 10.8423 2.78517Z" fill="#DC0D27"/>
<defs>
<radialGradient id="paint0_radial_921_5230" cx="0" cy="0" r="1" gradientUnits="userSpaceOnUse" gradientTransform="translate(22.862 16.9115) rotate(89.2952) scale(14.3987 24.0425)">
<stop offset="0.262" stop-color="#FFD3A6"/>
<stop offset="0.304" stop-color="#FFCF97"/>
<stop offset="0.384" stop-color="#FFC471"/>
<stop offset="0.494" stop-color="#FFB334"/>
<stop offset="0.578" stop-color="#FFA500"/>
<stop offset="0.667" stop-color="#FF8702"/>
<stop offset="0.817" stop-color="#FF5B05"/>
<stop offset="0.932" stop-color="#FF3F06"/>
<stop offset="1" stop-color="#FF3507"/>
</radialGradient>
</defs>
</svg>
